# xmcd
#
# Track frame offsets: 
#        150
#        15574
#        33875
#        56142
#        71133
#        88264
#        103996
#        122299
#        141285
#        159751
#        178622
#        196934
#
# Disc length: 2879 seconds
#
# Revision: 0
# Processed by: cddbd v1.5.2PL0 Copyright (c) Steve Scherf et al.
# Submitted via: ExactAudioCopy v0.99pb4
#
DISCID=9f0b3d0c
DTITLE=จ๊อบ-จอย - หมอลำร็อค ชุด3
DYEAR=2009
DGENRE=Country
TTITLE0=แอบมักพ่อฮ่าง
TTITLE1=หน่ำลงโลดอ้าย
TTITLE2=คึดฮอดอ้ายแจ๊ค
TTITLE3=อีหวึ่งผิดหวัง
TTITLE4=จ๊อบ-จอยส่งพร
TTITLE5=จะจองก็รีบจอง
TTITLE6=จองคนใส่แว่น
TTITLE7=รีโมทกดหล่อ
TTITLE8=หนุ่มมอเตอร์ไซค์
TTITLE9=ชวนอ้ายเบิ่งโขง
TTITLE10=พี่สุขน้องเศร้า
TTITLE11=ของแซบอีสาน
EXTD=
EXTT0=
EXTT1=
EXTT2=
EXTT3=
EXTT4=
EXTT5=
EXTT6=
EXTT7=
EXTT8=
EXTT9=
EXTT10=
EXTT11=
PLAYORDER=
